<svg version="1.1" xmlns="http://www.w3.org/2000/svg" xmlns:xlink="http://www.w3.org/1999/xlink" xml:space="preserve">
    <symbol id="lamp" viewBox="0 0 480.8 480.8" enable-background="new 0 0 480.8 480.8;">
        <g>
            <path style="fill:#FFD517;" d="M317.112,314.4c-22.4,22.4-19.6,67.6-19.6,67.6h-113.6c0,0,2.4-45.2-19.6-67.6
      c-24.4-21.6-40-52.8-40-87.6c0-64,52-116,116-116s116,52,116,116C356.312,261.6,341.112,292.8,317.112,314.4L317.112,314.4z" />
            <path style="fill:#E5E5E5;" d="M300.712,417.6c0,6-4.8,10.8-10.8,10.8h-98.8c-6,0-10.8-4.8-10.8-10.8l0,0c0-6,4.8-10.8,10.8-10.8
        h98.4C295.512,406.8,300.712,411.6,300.712,417.6L300.712,417.6z" />
            <path style="fill:#E5E5E5;" d="M285.912,462.4c0,6-4.8,10.8-10.8,10.8h-69.2c-6,0-10.8-4.8-10.8-10.8l0,0c0-6,4.8-10.8,10.8-10.8
        h69.2C281.112,451.6,285.912,456.4,285.912,462.4L285.912,462.4z" />
        </g>
        <g>
            <path style="fill:#210B20;" d="M323.112,318.4c26-23.6,40.8-56.8,40.8-91.6c0-68-55.6-123.6-123.6-123.6s-123.6,55.6-123.6,123.6
        c0,35.6,15.6,69.6,42,92.8c19.6,19.6,17.6,61.2,17.6,61.6c0,2,0.8,4,2,5.6c1.6,1.6,3.6,2.4,5.6,2.4h113.2c2,0,4-0.8,5.6-2.4
        s2-3.6,2-5.6c0-0.4-2-42,17.6-61.6C322.712,319.2,323.112,318.8,323.112,318.4z M311.912,308.4c-0.8,0.4-1.2,1.2-1.6,2
        c-17.6,18.8-20.4,49.6-20.8,64h-98c-0.4-14.8-3.6-46.8-22.4-65.6c-23.6-20.8-37.2-50.4-37.2-81.6c0-60,48.8-108.4,108.4-108.4
        c60,0,108.4,48.8,108.4,108.4C348.712,258,335.512,288,311.912,308.4z" />
            <path style="fill:#210B20;" d="M240.312,135.2c-4,0-7.6,3.2-7.6,7.6c0,4,3.2,7.6,7.6,7.6c44.8,0,81.2,36.4,81.2,81.2
        c0,4,3.2,7.6,7.6,7.6c4,0,7.6-3.2,7.6-7.6C336.712,178.4,293.512,135.2,240.312,135.2z" />
            <path style="fill:#210B20;" d="M308.312,417.6c0-10.4-8.4-18.4-18.4-18.4h-98.8c-10.4,0-18.4,8.4-18.4,18.4
        c0,10.4,8.4,18.4,18.4,18.4h98.4C299.912,436,308.312,428,308.312,417.6z M289.512,420.8h-98.4c-2,0-3.2-1.6-3.2-3.2
        c0-2,1.6-3.2,3.2-3.2h98.4c2,0,3.2,1.6,3.2,3.2C293.112,419.6,291.512,420.8,289.512,420.8z" />
            <path style="fill:#210B20;" d="M275.112,444h-69.2c-10.4,0-18.4,8.4-18.4,18.4c0,10.4,8.4,18.4,18.4,18.4h69.2
        c10.4,0,18.4-8.4,18.4-18.4C293.512,452.4,285.112,444,275.112,444z M275.112,465.6h-69.2c-2,0-3.2-1.6-3.2-3.2
        c0-2,1.6-3.2,3.2-3.2h69.2c2,0,3.2,1.6,3.2,3.2C278.312,464.4,277.112,465.6,275.112,465.6z" />
            <path style="fill:#210B20;" d="M247.912,58.8V7.6c0-4-3.2-7.6-7.6-7.6c-4,0-7.6,3.2-7.6,7.6v51.6c0,4,3.2,7.6,7.6,7.6
        C244.712,66.4,247.912,63.2,247.912,58.8z" />
            <path style="fill:#210B20;" d="M366.312,38c-3.6-2.4-8-1.2-10.4,2l-28.4,42.8c-2.4,3.6-1.2,8,2,10.4c1.2,0.8,2.8,1.2,4,1.2
        c2.4,0,4.8-1.2,6.4-3.2l28.4-42.8C370.712,45.2,369.512,40.4,366.312,38z" />
            <path style="fill:#210B20;" d="M149.912,92.8c1.2,0,2.8-0.4,4-1.2c3.6-2.4,4.4-6.8,2.4-10.4l-27.6-43.2c-2.4-3.6-6.8-4.4-10.4-2.4
        c-3.6,2.4-4.4,6.8-2.4,10.4l27.6,43.2C145.112,91.6,147.512,92.8,149.912,92.8z" />
            <path style="fill:#210B20;" d="M43.912,128.8l45.2,24.4c1.2,0.8,2.4,0.8,3.6,0.8c2.8,0,5.2-1.6,6.8-4c2-3.6,0.8-8.4-3.2-10.4
        l-45.2-24.4c-3.6-2-8.4-0.8-10.4,3.2C39.112,122.4,40.312,126.8,43.912,128.8z" />
            <path style="fill:#210B20;" d="M387.912,154.4c1.2,0,2.4-0.4,3.6-0.8l45.2-24.4c3.6-2,5.2-6.4,3.2-10.4c-2-3.6-6.4-5.2-10.4-3.2
        l-45.2,24.4c-3.6,2-5.2,6.4-3.2,10.4C382.312,152.8,385.112,154.4,387.912,154.4z" />
        </g>
        <g></g>
        <g></g>
        <g></g>
        <g></g>
        <g></g>
        <g></g>
        <g></g>
        <g></g>
        <g></g>
        <g></g>
        <g></g>
        <g></g>
        <g></g>
        <g></g>
        <g></g>
    </symbol>

    <symbol id="tombstone" viewBox="0 0 461.237 461.237" enable-background="new 0 0 461.237 461.237">
        <g>
            <path d="m385.301 92.084v337.743h-308.606v-337.743c0-9.301 7.54-16.841 16.841-16.841h2.874c9.301 0 16.841-7.54 16.841-16.841v-5.377c0-9.301 7.54-16.841 16.841-16.841 9.301 0 16.841-7.54 16.841-16.841v-2.503c-.001-9.3 7.539-16.84 16.84-16.84h.023 134.434c9.301 0 16.841 7.54 16.841 16.841v2.503c0 9.301 7.54 16.841 16.841 16.841 9.296.006 16.829 7.544 16.829 16.841v5.377c0 9.301 7.54 16.841 16.841 16.841h.034 2.897c9.279.027 16.788 7.559 16.788 16.84z" fill="#dbd8dd" />
            <g fill="#575b6d">
                <path d="m362.352 409.151h-262.68c-1.267 0-2.295-1.027-2.295-2.295v-308.77c-.001-1.196.917-2.193 2.109-2.289 19.305-1.704 34.187-17.745 34.441-37.124.011-1.125.835-2.077 1.946-2.25 17.021-2.614 30.064-16.502 31.606-33.653.108-1.184 1.1-2.092 2.289-2.092h122.486c1.189.001 2.182.908 2.289 2.092 1.536 17.146 14.569 31.034 31.583 33.653 1.112.173 1.935 1.125 1.946 2.25.253 19.388 15.148 35.433 34.463 37.124 1.192.097 2.11 1.093 2.109 2.289v308.77c.003 1.267-1.025 2.295-2.292 2.295zm-260.385-4.596h258.084v-304.399c-20.04-2.786-35.325-19.334-36.516-39.531-17.488-3.513-30.851-17.687-33.327-35.352h-118.397c-2.481 17.671-15.854 31.846-33.35 35.352-1.196 20.186-16.467 36.726-36.494 39.526z" />
                <path d="m215.004 75.238h31.685v178.577h-31.685z" />
                <path d="m178.521 113.644h104.65v30.245h-104.65z" />
                <path d="m32.258 424.478h396.72c2.538 0 4.596 2.057 4.596 4.596v27.567c0 2.538-2.057 4.595-4.596 4.595h-396.72c-2.538 0-4.595-2.057-4.595-4.595v-27.567c0-2.538 2.057-4.596 4.595-4.596z" />
                <path d="m212.664 359.708h-10.76l-7.07-20.036c-1.199-3.461-3.393-6.492-6.305-8.713-2.897-2.237-6.465-3.426-10.125-3.375h-18.394v32.123h-9.967v-75.125h33.254c4.804-.128 9.601.44 14.242 1.687 3.767 1.198 6.967 3.73 9 7.121 2.331 3.654 3.542 7.911 3.482 12.245.159 4.745-1.444 9.382-4.5 13.016-3.231 3.611-7.596 6.013-12.375 6.812v.214c5.897 2.391 10.321 7.423 11.936 13.578zm-52.677-41.061h22.19c4.674.362 9.351-.652 13.455-2.919 3.009-2.443 4.58-6.242 4.174-10.097 0-8.542-5.362-12.813-16.087-12.813h-23.731v25.829z" />
                <path d="m237.059 359.708h-9.995v-75.125h9.995z" />
                <path d="m254.991 284.583h28.029c5.204-.111 10.399.466 15.451 1.716 4.118 1.12 7.649 3.78 9.86 7.43 2.43 3.817 3.695 8.26 3.639 12.785.435 6.572-2.241 12.966-7.228 17.268-6.082 4.316-13.467 6.398-20.908 5.895h-18.904v30.031h-9.939zm9.939 36.179h19.012c4.831.45 9.666-.821 13.651-3.589 2.833-2.67 4.326-6.465 4.072-10.35.05-2.827-.733-5.607-2.25-7.993-1.271-2.145-3.317-3.721-5.715-4.404-3.272-.714-6.62-1.023-9.967-.922h-18.803z" />
            </g>
        </g>
    </symbol>

    <symbol id="open-book" viewBox="0 0 512 512">
        <defs />
        <path fill="#9c6750" d="M286 444l223-48V96l-233 40-3 133zM3 411l224 33 19-181-10-125L3 105z" />
        <path fill="#844f3e" d="M227 444h59l-10-308-40 2z" />
        <g fill="#f3d544">
            <path d="M484 406l28-7v-33l-8 1-3 20-17 7zM489 96l23-4v29l-7-1-1-16-13-2zM0 129v-28l26 4-2 8-15 1-3 14z" />
        </g>
        <g>
            <path fill="#e7e2d5" d="M256 159L30 56l-7 337 239 43z" />
            <path fill="#e7e2d5" d="M256 159L477 52l12 328-227 56z" />
            <path fill="#f4efe3" d="M50 356L83 28l173 131 6 277z" />
            <path fill="#fdf9f2" d="M147 0l109 159 6 277L86 315z" />
            <path fill="#f4efe3" d="M256 159L423 29l35 315-196 92z" />
            <path fill="#fdf9f2" d="M256 159L360 0l60 311-158 125z" />
            <path fill="#d68034" d="M252 151h8l6 361h-20z" />
            <g fill="#e7e2d5">
                <path d="M156 56l82 100-3 87-98-92zM131 172l102 85-2 13-103-88zM125 203l92 69-2 10-93-70zM120 228l106 73-2 12-106-75zM115 254l115 76v16l-118-82zM107 282l105 66-4 14-103-69z" />
                <g>
                    <path d="M271 162l81-116 3 12-82 118zM274 189l86-113 3 14-87.653 108.426zM279 218l84-92 3 14-87 92zM279 246l82-81 2 14-84 79zM386 320l17-14-7-18-13 10z" />
                </g>
            </g>
        </g>
        <path fill="#f3d544" d="M34 420l-34-6v-42l11 3 2 21 20 13z" />
    </symbol>
</svg>