<svg version="1.1" xmlns="http://www.w3.org/2000/svg" xmlns:xlink="http://www.w3.org/1999/xlink" xml:space="preserve" id="tombstone" viewBox="0 0 461.237 461.237" enable-background="new 0 0 461.237 461.237">
    <g>
        <path d="m385.301 92.084v337.743h-308.606v-337.743c0-9.301 7.54-16.841 16.841-16.841h2.874c9.301 0 16.841-7.54 16.841-16.841v-5.377c0-9.301 7.54-16.841 16.841-16.841 9.301 0 16.841-7.54 16.841-16.841v-2.503c-.001-9.3 7.539-16.84 16.84-16.84h.023 134.434c9.301 0 16.841 7.54 16.841 16.841v2.503c0 9.301 7.54 16.841 16.841 16.841 9.296.006 16.829 7.544 16.829 16.841v5.377c0 9.301 7.54 16.841 16.841 16.841h.034 2.897c9.279.027 16.788 7.559 16.788 16.84z" fill="#dbd8dd" />
        <g fill="#575b6d">
            <path d="m362.352 409.151h-262.68c-1.267 0-2.295-1.027-2.295-2.295v-308.77c-.001-1.196.917-2.193 2.109-2.289 19.305-1.704 34.187-17.745 34.441-37.124.011-1.125.835-2.077 1.946-2.25 17.021-2.614 30.064-16.502 31.606-33.653.108-1.184 1.1-2.092 2.289-2.092h122.486c1.189.001 2.182.908 2.289 2.092 1.536 17.146 14.569 31.034 31.583 33.653 1.112.173 1.935 1.125 1.946 2.25.253 19.388 15.148 35.433 34.463 37.124 1.192.097 2.11 1.093 2.109 2.289v308.77c.003 1.267-1.025 2.295-2.292 2.295zm-260.385-4.596h258.084v-304.399c-20.04-2.786-35.325-19.334-36.516-39.531-17.488-3.513-30.851-17.687-33.327-35.352h-118.397c-2.481 17.671-15.854 31.846-33.35 35.352-1.196 20.186-16.467 36.726-36.494 39.526z" />
            <path d="m215.004 75.238h31.685v178.577h-31.685z" />
            <path d="m178.521 113.644h104.65v30.245h-104.65z" />
            <path d="m32.258 424.478h396.72c2.538 0 4.596 2.057 4.596 4.596v27.567c0 2.538-2.057 4.595-4.596 4.595h-396.72c-2.538 0-4.595-2.057-4.595-4.595v-27.567c0-2.538 2.057-4.596 4.595-4.596z" />
            <path d="m212.664 359.708h-10.76l-7.07-20.036c-1.199-3.461-3.393-6.492-6.305-8.713-2.897-2.237-6.465-3.426-10.125-3.375h-18.394v32.123h-9.967v-75.125h33.254c4.804-.128 9.601.44 14.242 1.687 3.767 1.198 6.967 3.73 9 7.121 2.331 3.654 3.542 7.911 3.482 12.245.159 4.745-1.444 9.382-4.5 13.016-3.231 3.611-7.596 6.013-12.375 6.812v.214c5.897 2.391 10.321 7.423 11.936 13.578zm-52.677-41.061h22.19c4.674.362 9.351-.652 13.455-2.919 3.009-2.443 4.58-6.242 4.174-10.097 0-8.542-5.362-12.813-16.087-12.813h-23.731v25.829z" />
            <path d="m237.059 359.708h-9.995v-75.125h9.995z" />
            <path d="m254.991 284.583h28.029c5.204-.111 10.399.466 15.451 1.716 4.118 1.12 7.649 3.78 9.86 7.43 2.43 3.817 3.695 8.26 3.639 12.785.435 6.572-2.241 12.966-7.228 17.268-6.082 4.316-13.467 6.398-20.908 5.895h-18.904v30.031h-9.939zm9.939 36.179h19.012c4.831.45 9.666-.821 13.651-3.589 2.833-2.67 4.326-6.465 4.072-10.35.05-2.827-.733-5.607-2.25-7.993-1.271-2.145-3.317-3.721-5.715-4.404-3.272-.714-6.62-1.023-9.967-.922h-18.803z" />
        </g>
    </g>
</svg>